<svg id="Layer_1" data-name="Layer 1" xmlns="http://www.w3.org/2000/svg" viewBox="0 0 158.5 138.86"><defs><style>.cls-1{fill:#fff2eb;}.cls-1,.cls-3{fill-rule:evenodd;}.cls-2,.cls-3{fill:#f26322;}.cls-4{fill:#6c4ea0;}</style></defs><title>hepsijet_kutu</title><path class="cls-1" d="M77,95.29a19.28,19.28,0,0,0-8.5-2c-10.22,0-18.5,7.83-18.5,17.5s8.28,17.5,18.5,17.5a18.74,18.74,0,0,0,15.72-8.27c-3,11.63-14,20.27-27.22,20.27-15.46,0-28-11.86-28-26.5s12.54-26.5,28-26.5A28.71,28.71,0,0,1,77,95.29Zm91-15,15,56-45.5,27-35-17-17-48L128,79.84l2.41,0A20.07,20.07,0,0,1,128,70.34c0-11.6,9.93-21,22.19-21a22.83,22.83,0,0,1,15.2,5.7,13.32,13.32,0,0,0-4.91-.95A13.68,13.68,0,0,0,147,68a14,14,0,0,0,7.07,12.21l13.23.16h-.7a13.69,13.69,0,0,0,5-4.56,20.06,20.06,0,0,1-3.13,6.44l-.5-1.86h0Z" transform="translate(-29 -45.34)"/><path class="cls-2" d="M130,73.55a3.08,3.08,0,0,0,.09-1,19.38,19.38,0,0,1-.1-2c0-12.19,10.51-22.14,23.57-22.14s23.56,9.95,23.56,22.14a21.1,21.1,0,0,1-4.51,13,3.3,3.3,0,0,0-.53,1.08l2.91.76a24.19,24.19,0,0,0,5.13-14.86c0-13.88-11.89-25.14-26.56-25.14S127,56.6,127,70.48c0,.78,0,1.55.11,2.31l2.9.76Zm.09-1a19.38,19.38,0,0,1-.1-2c0-12.19,10.51-22.14,23.57-22.14s23.56,9.95,23.56,22.14a21.1,21.1,0,0,1-4.51,13,3.3,3.3,0,0,0-.53,1.08l2.91.76a24.19,24.19,0,0,0,5.13-14.86c0-13.88-11.89-25.14-26.56-25.14S127,56.6,127,70.48c0,.78,0,1.55.11,2.31l2.9.76A3.08,3.08,0,0,0,130.1,72.5Z" transform="translate(-29 -45.34)"/><path class="cls-2" d="M152.17,74.17a3,3,0,0,0,.14-1.16q-.06-.72-.06-1.44c0-8.51,5.69-15.23,12.44-15.23s12.44,6.72,12.44,15.23a17.45,17.45,0,0,1-2.53,9.19,3.23,3.23,0,0,0-.31.65l2.86.93a20.46,20.46,0,0,0,3-10.77c0-10.07-6.91-18.23-15.44-18.23s-15.44,8.16-15.44,18.23c0,.56,0,1.12.07,1.67l2.85.93Zm.14-1.16q-.06-.72-.06-1.44c0-8.51,5.69-15.23,12.44-15.23s12.44,6.72,12.44,15.23a17.45,17.45,0,0,1-2.53,9.19,3.23,3.23,0,0,0-.31.65l2.86.93a20.46,20.46,0,0,0,3-10.77c0-10.07-6.91-18.23-15.44-18.23s-15.44,8.16-15.44,18.23c0,.56,0,1.12.07,1.67l2.85.93a3,3,0,0,0,.14-1.16ZM62,132.34c13.84,0,25-10.56,25-23.5s-11.16-23.5-25-23.5S37,95.9,37,108.84,48.16,132.34,62,132.34Zm0,3c-15.46,0-28-11.86-28-26.5s12.54-26.5,28-26.5,28,11.86,28,26.5S77.46,135.34,62,135.34Z" transform="translate(-29 -45.34)"/><path class="cls-3" d="M71.5,123.34c8.6,0,15.5-6.53,15.5-14.5s-6.9-14.5-15.5-14.5S56,100.87,56,108.84,62.9,123.34,71.5,123.34Zm0,3c-10.22,0-18.5-7.84-18.5-17.5s8.28-17.5,18.5-17.5S90,99.17,90,108.84,81.72,126.34,71.5,126.34ZM172.45,73l15,56a1.51,1.51,0,0,1-.69,1.68l-45.5,27a1.49,1.49,0,0,1-1.43.05l-35-17a1.48,1.48,0,0,1-.76-.85l-17-47.92a2,2,0,0,1-.1-.77,1.43,1.43,0,0,1,.72-1.1S102,83.82,130.4,71.46a1.67,1.67,0,0,1,.62-.12l39.95.5A1.5,1.5,0,0,1,172.45,73Zm11.81,55.68L170,75.44l-47.66,21.7,19,57,42.92-25.47ZM119.37,97.68,90.75,93.21l16,45.05L138,153.43,119.37,97.68Zm.92-2.89,44-20-33-.42L93.83,90.65Z" transform="translate(-29 -45.34)"/><path class="cls-3" d="M95,104.34H87v7a114.18,114.18,0,0,1,18.5,2.5C109,113.84,105.5,104.34,95,104.34Zm42.51-.07,4.3-2.09a2.62,2.62,0,0,1,3.74,1.55l1.51,4.52a3.6,3.6,0,0,1-1.8,4.25L141,114.6a2.61,2.61,0,0,1-3.73-1.56l-1.51-4.51a3.61,3.61,0,0,1,1.8-4.26Zm20.9-10.19L162.72,92a2.61,2.61,0,0,1,3.73,1.55L168,98.06a3.59,3.59,0,0,1-1.8,4.25l-4.3,2.1a2.62,2.62,0,0,1-3.74-1.56l-1.5-4.51A3.61,3.61,0,0,1,158.41,94.08Zm-12.75,27.47a60.35,60.35,0,0,0,10.91-4.06,64.31,64.31,0,0,0,10.19-6.23,2.66,2.66,0,0,1,4,.72,2.91,2.91,0,0,1,.35,1q2.59,14.2-9.38,20t-18.25-6.56a3.56,3.56,0,0,1,1.24-4.43A3,3,0,0,1,145.66,121.55Z" transform="translate(-29 -45.34)"/><path class="cls-2" d="M73.48,167.28v5.09h.06a3.15,3.15,0,0,1,1.3-1.24,3.52,3.52,0,0,1,1.55-.39,4.67,4.67,0,0,1,1.77.29,2.69,2.69,0,0,1,1.09.82,3.23,3.23,0,0,1,.56,1.26,8.42,8.42,0,0,1,.16,1.66v6H77.28v-5.52a3.37,3.37,0,0,0-.38-1.81,1.46,1.46,0,0,0-1.34-.59,1.85,1.85,0,0,0-1.58.65,3.58,3.58,0,0,0-.5,2.14v5.13H70.8v-13.5Z" transform="translate(-29 -45.34)"/><path class="cls-2" d="M84.12,178.43a2.74,2.74,0,0,0,3.14.18,1.71,1.71,0,0,0,.72-.86h2.36a4.55,4.55,0,0,1-1.74,2.52,5.15,5.15,0,0,1-2.83.75,5.51,5.51,0,0,1-2.08-.37,4.18,4.18,0,0,1-1.57-1.05,4.59,4.59,0,0,1-1-1.62,5.79,5.79,0,0,1-.35-2.08,5.68,5.68,0,0,1,.36-2,4.79,4.79,0,0,1,1-1.63,4.65,4.65,0,0,1,1.58-1.09,4.94,4.94,0,0,1,2-.4,4.66,4.66,0,0,1,2.17.48,4.36,4.36,0,0,1,1.52,1.3,5.33,5.33,0,0,1,.86,1.85,6.79,6.79,0,0,1,.19,2.17H83.46A2.74,2.74,0,0,0,84.12,178.43Zm3-5.14a1.91,1.91,0,0,0-1.47-.53,2.42,2.42,0,0,0-1.07.22,2.2,2.2,0,0,0-.68.54,2,2,0,0,0-.36.68,2.84,2.84,0,0,0-.12.64h4.37A3.18,3.18,0,0,0,87.16,173.29Z" transform="translate(-29 -45.34)"/><path class="cls-2" d="M93.89,171v1.24h0a2.93,2.93,0,0,1,1.25-1.15,3.78,3.78,0,0,1,1.66-.36,4.19,4.19,0,0,1,2,.44,4,4,0,0,1,1.38,1.15A4.92,4.92,0,0,1,101,174a7.7,7.7,0,0,1,.26,2,6.9,6.9,0,0,1-.26,1.89,4.88,4.88,0,0,1-.81,1.61,3.94,3.94,0,0,1-1.34,1.12A4.1,4.1,0,0,1,97,181a3.75,3.75,0,0,1-1.67-.37,3.12,3.12,0,0,1-1.26-1.08h0v4.63H91.34V171Zm3.49,7.74a2.16,2.16,0,0,0,.72-.69,2.73,2.73,0,0,0,.38-1,5.54,5.54,0,0,0,.12-1.15,4.89,4.89,0,0,0-.13-1.15,2.93,2.93,0,0,0-.4-1,2.18,2.18,0,0,0-.73-.72,2.28,2.28,0,0,0-2.19,0,2.13,2.13,0,0,0-.72.71,3.07,3.07,0,0,0-.39,1,6.45,6.45,0,0,0-.11,1.17,5.54,5.54,0,0,0,.12,1.15,2.94,2.94,0,0,0,.4,1,1.94,1.94,0,0,0,.73.69,2.07,2.07,0,0,0,1.09.27A2.12,2.12,0,0,0,97.38,178.75Z" transform="translate(-29 -45.34)"/><path class="cls-2" d="M104.54,178.35a1.51,1.51,0,0,0,.46.51,2,2,0,0,0,.65.29,3.32,3.32,0,0,0,.77.1,3.06,3.06,0,0,0,.59-.07,2,2,0,0,0,.57-.21,1.3,1.3,0,0,0,.43-.38,1,1,0,0,0,.17-.59c0-.41-.27-.71-.81-.91a15.84,15.84,0,0,0-2.24-.6c-.39-.09-.77-.2-1.14-.32a3.77,3.77,0,0,1-1-.47,2.32,2.32,0,0,1-.7-.73,2.07,2.07,0,0,1-.26-1.09,3,3,0,0,1,.36-1.55,2.82,2.82,0,0,1,1-1,4.39,4.39,0,0,1,1.36-.49,8.76,8.76,0,0,1,1.55-.14,7.81,7.81,0,0,1,1.54.15,4.09,4.09,0,0,1,1.33.51,3.06,3.06,0,0,1,1,1,3.13,3.13,0,0,1,.47,1.5H108a1.16,1.16,0,0,0-.58-1.05,2.71,2.71,0,0,0-1.25-.27l-.49,0a1.41,1.41,0,0,0-.48.12.91.91,0,0,0-.37.27.73.73,0,0,0-.15.48.76.76,0,0,0,.26.59,2.25,2.25,0,0,0,.69.37,8.69,8.69,0,0,0,1,.25l1.11.25a10.65,10.65,0,0,1,1.14.32,3.74,3.74,0,0,1,1,.5,2.49,2.49,0,0,1,.7.78,2.32,2.32,0,0,1,.26,1.14,3.07,3.07,0,0,1-.39,1.61,3,3,0,0,1-1,1.05,4.06,4.06,0,0,1-1.42.56,8.33,8.33,0,0,1-3.3,0,4.23,4.23,0,0,1-1.45-.57,3.23,3.23,0,0,1-1-1,3.26,3.26,0,0,1-.44-1.64h2.55A1.49,1.49,0,0,0,104.54,178.35Z" transform="translate(-29 -45.34)"/><path class="cls-2" d="M111.69,169.49v-2.21h2.68v2.21Zm2.68,1.52v9.77h-2.68V171Z" transform="translate(-29 -45.34)"/><path class="cls-4" d="M120.49,167.28l-1.59,2.42h3.75v6.38a2.4,2.4,0,0,1-2.44,2.55,2.48,2.48,0,0,1-2.51-2.41l-2.52.51a5.1,5.1,0,0,0,10.13-.65v-8.8Z" transform="translate(-29 -45.34)"/><polygon class="cls-4" points="108.38 121.94 106.8 124.36 111.27 124.36 111.27 135.39 113.93 135.39 113.93 124.36 116.77 124.36 118.36 121.94 108.38 121.94"/><polygon class="cls-2" points="119.3 121.94 117.71 124.36 120.04 124.36 121.63 121.94 119.3 121.94"/><polygon class="cls-4" points="99.98 129.91 104.7 129.91 106.26 127.53 99.98 127.53 99.98 124.36 105.85 124.36 107.44 121.94 97.31 121.94 97.31 135.39 105.85 135.39 107.44 132.97 99.98 132.98 99.98 129.91"/></svg>